<svg id="Capa_1" enable-background="new 0 0 512 512" height="512" viewBox="0 0 512 512" width="512" xmlns="http://www.w3.org/2000/svg" xmlns:xlink="http://www.w3.org/1999/xlink"><linearGradient id="SVGID_1_" gradientUnits="userSpaceOnUse" x1="256" x2="256" y1="512" y2="30"><stop offset="0" stop-color="#5558ff"/><stop offset="1" stop-color="#00c0ff"/></linearGradient><linearGradient id="SVGID_2_" gradientUnits="userSpaceOnUse" x1="286" x2="286" y1="481" y2="0"><stop offset="0" stop-color="#addcff"/><stop offset=".5028" stop-color="#eaf6ff"/><stop offset="1" stop-color="#eaf6ff"/></linearGradient><g><g><g><path d="m323.5 30h-240c-24.814 0-45 20.186-45 45v392c0 24.814 20.186 45 45 45h240c24.814 0 45-20.186 45-45v-392c0-24.814-20.186-45-45-45zm135 31h-30c-8.401 0-15 6.599-15 15v240l30 30 30-30v-240c0-8.401-6.599-15-15-15z" fill="url(#SVGID_1_)"/></g></g><g><g><path d="m278.5 15c0-8.291-6.709-15-15-15h-120c-8.291 0-15 6.709-15 15 0 24.814 20.186 45 45 45h60c24.814 0 45-20.186 45-45zm-130.605 140.395-19.395 19.394-4.395-4.395c-5.859-5.859-15.352-5.859-21.211 0s-5.859 15.352 0 21.211l15 15c5.859 5.859 15.352 5.859 21.211 0l30-30c5.859-5.859 5.859-15.352 0-21.211s-15.351-5.859-21.21.001zm0 90-19.395 19.394-4.395-4.395c-5.859-5.859-15.352-5.859-21.211 0s-5.859 15.352 0 21.211l15 15c5.859 5.859 15.352 5.859 21.211 0l30-30c5.859-5.859 5.859-15.352 0-21.211s-15.351-5.859-21.21.001zm0 90-19.395 19.394-4.395-4.395c-5.859-5.859-15.352-5.859-21.211 0s-5.859 15.352 0 21.211l15 15c5.859 5.859 15.352 5.859 21.211 0l30-30c5.859-5.859 5.859-15.352 0-21.211s-15.351-5.859-21.21.001zm145.605-154.395h-90c-8.291 0-15 6.709-15 15s6.709 15 15 15h90c8.291 0 15-6.709 15-15s-6.709-15-15-15zm0 90h-90c-8.291 0-15 6.709-15 15s6.709 15 15 15h90c8.291 0 15-6.709 15-15s-6.709-15-15-15zm0 90h-90c-8.291 0-15 6.709-15 15s6.709 15 15 15h90c8.291 0 15-6.709 15-15s-6.709-15-15-15zm120-45v77.701c0 18.512 5.413 36.762 15 52.687v19.612c0 8.291 6.709 15 15 15s15-6.709 15-15v-19.611c9.587-15.925 15-34.175 15-52.689v-77.7z" fill="url(#SVGID_2_)"/></g></g></g></svg>