<svg width="275" height="22" viewBox="0 0 275 22" fill="none" xmlns="http://www.w3.org/2000/svg">
<path d="M21.2267 8.20667H18.6667V16.1267H15.7867V0.926666H18.6667V5.27333H21.2267V8.20667ZM7.41333 8.55333C6.63111 9.86889 5.67111 10.9267 4.53333 11.7267C3.41333 12.5267 2.16889 12.9978 0.8 13.14V10.3133C1.92 10.1178 2.89778 9.59333 3.73333 8.74C4.58667 7.86889 5.24444 6.76667 5.70667 5.43333C6.16889 4.08222 6.40889 2.62444 6.42667 1.06L9.30667 1.24667C9.30667 2.98889 9.05778 4.59778 8.56 6.07333L14.48 10.74L12.72 12.9L7.41333 8.55333ZM19.12 18.5267V21.2467H2.02667V14.4733H4.96V18.5267H19.12ZM40.4772 11.5667H37.5972V7.56667H33.9705C33.6683 8.72222 33.0016 9.64667 31.9705 10.34C30.9394 11.0333 29.6505 11.38 28.1039 11.38C26.8772 11.38 25.8016 11.1667 24.8772 10.74C23.9527 10.3133 23.2327 9.70889 22.7172 8.92667C22.2194 8.14444 21.9705 7.24667 21.9705 6.23333C21.9705 5.22 22.2194 4.32222 22.7172 3.54C23.2327 2.75778 23.9527 2.15333 24.8772 1.72667C25.8016 1.3 26.8772 1.08667 28.1039 1.08667C29.615 1.08667 30.8861 1.41556 31.9172 2.07333C32.9661 2.73111 33.6416 3.62 33.9439 4.74H37.5972V0.926666H40.4772V11.5667ZM28.1039 8.87333C29.0816 8.87333 29.855 8.64222 30.4239 8.18C31.0105 7.7 31.3039 7.05111 31.3039 6.23333C31.3039 5.41556 31.0105 4.76667 30.4239 4.28667C29.8372 3.80667 29.0639 3.56667 28.1039 3.56667C27.1261 3.56667 26.3439 3.80667 25.7572 4.28667C25.1705 4.76667 24.8772 5.41556 24.8772 6.23333C24.8772 7.05111 25.1705 7.7 25.7572 8.18C26.3439 8.64222 27.1261 8.87333 28.1039 8.87333ZM40.4772 12.3933V21.2467H23.8105V12.3933H26.6372V14.26H37.6239V12.3933H40.4772ZM37.6239 16.66H26.6372V18.82H37.6239V16.66ZM61.9944 21.4067H59.2744V11.7533H56.7144V21.06H54.021V1.03333H56.7144V8.9H59.2744V0.926666H61.9944V21.4067ZM49.5144 4.31333C49.4966 6.44667 49.3899 8.36667 49.1944 10.0733L53.7277 18.66L51.5144 19.9933L48.3677 14.0733C47.3544 17.8956 45.6033 19.9667 43.1144 20.2867V17.3267C44.2699 17.0422 45.1588 15.7533 45.781 13.46C46.4033 11.1667 46.7322 8.11778 46.7677 4.31333H43.461V1.56667H52.6344V4.31333H49.5144ZM74.0982 3.83333V6.58H63.6982V3.83333H67.4849V0.873333H70.3382V3.83333H74.0982ZM83.1116 21.4067H80.4449V11.7533H77.9382V21.06H75.2982V1.03333H77.9382V8.9H80.4449V0.926666H83.1116V21.4067ZM69.0049 7.86C70.3738 7.86 71.4849 8.41111 72.3382 9.51333C73.1916 10.6156 73.6182 12.18 73.6182 14.2067C73.6182 16.2156 73.1916 17.7711 72.3382 18.8733C71.4849 19.9756 70.3738 20.5267 69.0049 20.5267C67.6182 20.5267 66.4982 19.9844 65.6449 18.9C64.8093 17.7978 64.3916 16.2333 64.3916 14.2067C64.3916 12.18 64.8093 10.6156 65.6449 9.51333C66.4982 8.41111 67.6182 7.86 69.0049 7.86ZM69.0049 17.9133C69.5916 17.9133 70.0716 17.5844 70.4449 16.9267C70.8182 16.2689 71.0049 15.3622 71.0049 14.2067C71.0049 13.0511 70.8182 12.1444 70.4449 11.4867C70.0716 10.8289 69.5916 10.5 69.0049 10.5C68.4005 10.5 67.9116 10.8289 67.5382 11.4867C67.1827 12.1444 67.0049 13.0511 67.0049 14.2067C67.0049 15.3622 67.1827 16.2689 67.5382 16.9267C67.9116 17.5844 68.4005 17.9133 69.0049 17.9133ZM86.5221 11.8867V1.24667H89.3754V3.7H100.682V1.24667H103.535V11.8867H86.5221ZM100.682 6.36667H89.3754V9.19333H100.682V6.36667ZM96.4954 16.6067V21.8867H93.5621V16.6067H85.2421V13.8333H104.789V16.6067H96.4954ZM124.253 7.72667V12.0467H121.373V0.926666H124.253V4.82H126.813V7.72667H124.253ZM120.173 10.34C119.604 10.6067 118.813 10.82 117.799 10.98C116.804 11.1222 115.71 11.1933 114.519 11.1933H106.946V1.32667H118.893V3.86H109.853V8.66H114.679C115.835 8.66 116.893 8.58889 117.853 8.44667C118.813 8.30444 119.586 8.1 120.173 7.83333V10.34ZM124.253 13.0067V21.2467H107.613V13.0067H124.253ZM121.373 18.7133V15.54H110.493V18.7133H121.373ZM145.37 7.86V13.14H142.49V0.926666H145.37V4.95333H147.93V7.86H145.37ZM134.196 8.71333C133.485 9.83333 132.57 10.74 131.45 11.4333C130.348 12.1267 129.112 12.5356 127.743 12.66V9.91333C129.219 9.73556 130.401 9.10444 131.29 8.02C132.196 6.91778 132.721 5.54889 132.863 3.91333H128.01V1.32667H140.436V3.91333H135.796C135.743 4.83778 135.601 5.63778 135.37 6.31333L141.023 10.26L139.53 12.5L134.196 8.71333ZM145.37 14.1V21.5133H142.436V16.7133H128.596V14.1H145.37ZM167.18 11.5667H164.3V7.56667H160.674C160.371 8.72222 159.705 9.64667 158.674 10.34C157.643 11.0333 156.354 11.38 154.807 11.38C153.58 11.38 152.505 11.1667 151.58 10.74C150.656 10.3133 149.936 9.70889 149.42 8.92667C148.923 8.14444 148.674 7.24667 148.674 6.23333C148.674 5.22 148.923 4.32222 149.42 3.54C149.936 2.75778 150.656 2.15333 151.58 1.72667C152.505 1.3 153.58 1.08667 154.807 1.08667C156.318 1.08667 157.589 1.41556 158.62 2.07333C159.669 2.73111 160.345 3.62 160.647 4.74H164.3V0.926666H167.18V11.5667ZM154.807 8.87333C155.785 8.87333 156.558 8.64222 157.127 8.18C157.714 7.7 158.007 7.05111 158.007 6.23333C158.007 5.41556 157.714 4.76667 157.127 4.28667C156.54 3.80667 155.767 3.56667 154.807 3.56667C153.829 3.56667 153.047 3.80667 152.46 4.28667C151.874 4.76667 151.58 5.41556 151.58 6.23333C151.58 7.05111 151.874 7.7 152.46 8.18C153.047 8.64222 153.829 8.87333 154.807 8.87333ZM167.18 12.3933V21.2467H150.514V12.3933H153.34V14.26H164.327V12.3933H167.18ZM164.327 16.66H153.34V18.82H164.327V16.66ZM188.698 21.4067H186.004V0.926666H188.698V21.4067ZM183.977 1.03333V21.06H181.311V15.8067H178.644C178.306 17.4244 177.791 18.6244 177.098 19.4067C176.404 20.1711 175.515 20.5533 174.431 20.5533C172.92 20.5533 171.782 19.78 171.017 18.2333C170.253 16.6867 169.871 14.2511 169.871 10.9267C169.871 7.60222 170.253 5.16667 171.017 3.62C171.782 2.07333 172.92 1.3 174.431 1.3C176.458 1.3 177.809 2.66 178.484 5.38H181.311V1.03333H183.977ZM174.431 17.8067C175.089 17.8067 175.569 17.2556 175.871 16.1533C176.191 15.0333 176.351 13.2911 176.351 10.9267C176.351 8.56222 176.191 6.82889 175.871 5.72667C175.569 4.60667 175.089 4.04667 174.431 4.04667C173.773 4.04667 173.293 4.60667 172.991 5.72667C172.706 6.82889 172.564 8.56222 172.564 10.9267C172.564 13.2911 172.706 15.0333 172.991 16.1533C173.293 17.2556 173.773 17.8067 174.431 17.8067ZM181.311 8.18H178.911C179 9.10444 179.044 10.02 179.044 10.9267C179.044 11.6733 179.017 12.3667 178.964 13.0067H181.311V8.18ZM211.281 7.86H208.721V12.5533H205.841V0.926666H208.721V4.92667H211.281V7.86ZM191.415 11.54V1.24667H194.241V3.83333H200.188V1.24667H202.988V11.54H191.415ZM200.188 6.23333H194.241V9.03333H200.188V6.23333ZM200.455 13.0867C203.032 13.0867 205.095 13.4244 206.641 14.1C208.188 14.7756 208.961 15.8422 208.961 17.3C208.961 18.7578 208.188 19.8244 206.641 20.5C205.095 21.1756 203.032 21.5133 200.455 21.5133C197.877 21.5133 195.815 21.1756 194.268 20.5C192.721 19.8244 191.948 18.7578 191.948 17.3C191.948 15.8422 192.721 14.7756 194.268 14.1C195.815 13.4244 197.877 13.0867 200.455 13.0867ZM200.455 19.0867C202.072 19.0867 203.379 18.9444 204.375 18.66C205.388 18.3578 205.895 17.9044 205.895 17.3C205.895 16.6956 205.388 16.2511 204.375 15.9667C203.379 15.6644 202.072 15.5133 200.455 15.5133C198.855 15.5133 197.548 15.6644 196.535 15.9667C195.539 16.2511 195.041 16.6956 195.041 17.3C195.041 17.9044 195.539 18.3578 196.535 18.66C197.548 18.9444 198.855 19.0867 200.455 19.0867ZM213.039 8.26V6.07333H216.292V3.24667H213.252V1.08667H230.212V3.24667H227.145V6.07333H230.399V8.26H213.039ZM224.292 6.07333V3.24667H219.172V6.07333H224.292ZM231.492 11.86H211.945V9.62H231.492V11.86ZM230.532 19.3V21.2467H213.225V16.3667H227.412V15.14H213.172V13.1933H230.265V18.0733H216.052V19.3H230.532ZM244.076 13.4867V1.03333H246.769V5.56667H249.329V0.926666H252.049V15.38H249.329V8.36667H246.769V13.4867H244.076ZM242.929 12.42C241.756 12.9178 240.022 13.1667 237.729 13.1667H233.569V6.07333H239.329V3.75333H233.569V1.32667H241.996V8.36667H236.236V10.7133H237.916C240.12 10.7133 241.791 10.4733 242.929 9.99333V12.42ZM243.169 18.2867C242.12 19.2467 240.831 19.9756 239.302 20.4733C237.774 20.9711 236.165 21.2289 234.476 21.2467V18.5C235.756 18.4822 236.974 18.2956 238.129 17.94C239.302 17.5667 240.298 17.0422 241.116 16.3667C241.934 15.6733 242.458 14.8556 242.689 13.9133L245.516 14.5533C245.427 14.9978 245.24 15.5222 244.956 16.1267L252.956 18.8733L251.969 21.5133L243.169 18.2867ZM273.726 12.98H254.18V10.6333H262.526V8.95333H255.273V6.60667H258.526V3.40667H255.486V1.08667H272.446V3.40667H269.38V6.60667H272.633V8.95333H265.406V10.6333H273.726V12.98ZM266.526 6.60667V3.40667H261.406V6.60667H266.526ZM272.473 14.5V21.2467H255.46V14.5H272.473ZM269.593 18.9533V16.7933H258.313V18.9533H269.593Z" fill="#1D56BC"/>
</svg>
